# xmcd CD database file
# Copyright (C) 1993-1997  Ti Kan
#
# Track frame offsets:
#	150
#	12907
#	26775
#	40902
#	53895
#	65187
#	80230
#	95647
#	107785
#	123207
#	134400
#	150785
#	163722
#	179802
#	190487
#	201595
#
# Disc length: 2900 seconds
#
# Revision: 1
# Processed by: cddbd v1.4b41PL1 Copyright (c) Steve Scherf et al.
# Submitted via: xmcd 2.1 PL2
#
DISCID=ed0b5210
DTITLE=Golden Gate Quartet - The Best Of
DYEAR=1900
DGENRE=
TTITLE0=He's  Got The Whole World In His Hand
TTITLE1=Go Down Moses (Let My People Go)
TTITLE2=On The Sunny Side Of The Street
TTITLE3=Ezekiel (Saw The Wheel)
TTITLE4=Joshua (Fit The Battle Of Jericho)
TTITLE5=Sixteen Tons
TTITLE6=If I Had A Hammer
TTITLE7=Swing Low Sweet Chariot
TTITLE8=Put Your Hands In The Hands
TTITLE9=Mamie Blue
TTITLE10=Summertime
TTITLE11=When The Saints Go Marching In
TTITLE12=He Never Said A Mumbalin Word
TTITLE13=Kansas City
TTITLE14=Just A Closer Walk With Thee
TTITLE15=Amen
EXTD=
EXTT0=
EXTT1=
EXTT2=
EXTT3=
EXTT4=
EXTT5=
EXTT6=
EXTT7=
EXTT8=
EXTT9=
EXTT10=
EXTT11=
EXTT12=
EXTT13=
EXTT14=
EXTT15=
PLAYORDER=
